<svg xmlns="http://www.w3.org/2000/svg" viewBox="0 0 64 64" role="img" aria-label="PawFinder logo"><path fill="#204c3e" d="M32 20c-8.7 0-15 7-15 15.6 0 5 2.2 7.8 5.2 7.8 3.6 0 4-3.4 9.8-3.4s6.2 3.4 9.8 3.4c3 0 5.2-2.8 5.2-7.8C47 27 40.7 20 32 20Z"/><ellipse fill="#73936a" cx="13.5" cy="17" rx="6" ry="8.5" transform="rotate(-28 13.5 17)"/><ellipse fill="#73936a" cx="27" cy="10" rx="6" ry="8.5" transform="rotate(-8 27 10)"/><ellipse fill="#73936a" cx="41" cy="10" rx="6" ry="8.5" transform="rotate(8 41 10)"/><ellipse fill="#73936a" cx="50.5" cy="17" rx="6" ry="8.5" transform="rotate(28 50.5 17)"/><circle fill="#f4c77c" cx="32" cy="31" r="4"/></svg>
